<svg id="Layer_1" data-name="Layer 1" xmlns="http://www.w3.org/2000/svg" xmlns:xlink="http://www.w3.org/1999/xlink" viewBox="0 0 150 150"><defs><style>.cls-1{fill:url(#linear-gradient);}.cls-2{fill:url(#linear-gradient-2);}.cls-3{fill:#ffba00;}</style><linearGradient id="linear-gradient" x1="87.07" y1="70.86" x2="126.36" y2="115.03" gradientTransform="translate(-22.63 33.56) rotate(-22)" gradientUnits="userSpaceOnUse"><stop offset="0" stop-color="#ffba00"/><stop offset="1" stop-color="#ff74fa"/></linearGradient><linearGradient id="linear-gradient-2" x1="50.57" y1="61.23" x2="31.55" y2="121.41" xlink:href="#linear-gradient"/></defs><path class="cls-1" d="M81,70C89.83,59.18,107.53,36.51,112,30.87s8.23-5.34,10.27-.3l20.2,50c1.1,2.74,1.59,4.17-1,7.45-3.34,4.2-28.42,36.29-32.73,41.38s-8.33,3-10.08-1.29l-19.79-49C77.37,75.52,77.76,74,81,70Z"/><path class="cls-2" d="M64.41,76.73C50.53,75.06,22.06,71.05,15,70.06S5.32,71.94,7.36,77l20.2,50c1.11,2.74,1.76,4.11,5.91,4.66,5.31.7,45.64,6.36,52.28,7s8.1-3.61,6.35-7.93l-19.79-49C70.85,78.15,69.52,77.34,64.41,76.73Z"/><path class="cls-3" d="M75.93,69.19c3.94-5,29.87-38.38,32.23-41.27s2.22-7.61-3.5-8.65-51-7.46-54.22-7.93-4.22,1.35-5.77,3.21S14.08,53.75,11.78,56.79s-1,7.64,2.06,8.17,51.28,7.18,54,7.48S72.63,73.36,75.93,69.19Z"/></svg>