<svg id="Layer_1" data-name="Layer 1" xmlns="http://www.w3.org/2000/svg" xmlns:xlink="http://www.w3.org/1999/xlink" viewBox="0 0 150 150"><defs><style>.cls-1{fill:url(#linear-gradient);}.cls-2{fill:url(#linear-gradient-2);}.cls-3{fill:#ffba00;}</style><linearGradient id="linear-gradient" x1="88.59" y1="73.23" x2="127.87" y2="117.4" gradientUnits="userSpaceOnUse"><stop offset="0" stop-color="#ffba00"/><stop offset="1" stop-color="#ff74fa"/></linearGradient><linearGradient id="linear-gradient-2" x1="52.08" y1="63.6" x2="33.06" y2="123.79" xlink:href="#linear-gradient"/></defs><path class="cls-1" d="M84,75c12.24-6.75,37.14-21.14,43.36-24.71s9.63-1.86,9.63,3.57V107.8c0,3-.09,4.46-3.73,6.52-4.66,2.65-39.93,23-45.84,26.11s-8.86-.31-8.86-5V82.62C78.51,78.74,79.44,77.49,84,75Z"/><path class="cls-2" d="M66.05,75C53.81,68.26,28.91,53.87,22.69,50.3s-9.63-1.86-9.63,3.57V107.8c0,3,.09,4.46,3.73,6.52,4.66,2.65,39.93,23,45.84,26.11s8.86-.31,8.86-5V82.62C71.49,78.74,70.56,77.49,66.05,75Z"/><path class="cls-3" d="M79.55,72.33c5.54-3.16,42.07-24.39,45.34-26.19s4.91-6.22,0-9.33-44.52-26-47.3-27.67S73.17,8.82,71,10,28,34.84,24.71,36.81,21,43.52,23.57,45.16,68.42,71,70.87,72.33,74.93,75,79.55,72.33Z"/></svg>