<svg id="Layer_1" data-name="Layer 1" xmlns="http://www.w3.org/2000/svg" xmlns:xlink="http://www.w3.org/1999/xlink" viewBox="0 0 150 150"><defs><style>.cls-1{fill:url(#linear-gradient);}.cls-2{fill:url(#linear-gradient-2);}.cls-3{fill:#ffba00;}</style><linearGradient id="linear-gradient" x1="90.09" y1="70.83" x2="129.37" y2="115" gradientTransform="translate(33.56 -22.63) rotate(22)" gradientUnits="userSpaceOnUse"><stop offset="0" stop-color="#ffba00"/><stop offset="1" stop-color="#ff74fa"/></linearGradient><linearGradient id="linear-gradient-2" x1="53.59" y1="61.2" x2="34.56" y2="121.39" xlink:href="#linear-gradient"/></defs><path class="cls-1" d="M85.59,76.7C99.47,75,127.94,71,135,70s9.64,1.88,7.6,6.92l-20.2,50c-1.11,2.74-1.76,4.1-5.91,4.65-5.31.71-45.64,6.37-52.28,7s-8.1-3.61-6.35-7.93l19.79-49C79.15,78.12,80.48,77.31,85.59,76.7Z"/><path class="cls-2" d="M69,70C60.17,59.15,42.47,36.48,38,30.84s-8.23-5.34-10.27-.3l-20.2,50C6.47,83.28,6,84.71,8.58,88c3.34,4.19,28.42,36.28,32.73,41.38s8.33,3,10.08-1.29l19.79-49C72.63,75.49,72.24,74,69,70Z"/><path class="cls-3" d="M82.51,72.56c6.32-.85,48.14-6.85,51.85-7.29s6.88-3.93,3.5-8.66-31.54-40.81-33.5-43.37-4-2-6.38-1.69-49.24,6.94-53,7.54-6,4.81-4.19,7.31,31.9,40.78,33.69,42.91S77.24,73.28,82.51,72.56Z"/></svg>