<svg id="Layer_1" data-name="Layer 1" xmlns="http://www.w3.org/2000/svg" xmlns:xlink="http://www.w3.org/1999/xlink" viewBox="0 0 150 150"><defs><style>.cls-1{fill:url(#linear-gradient);}.cls-2{fill:url(#linear-gradient-2);}.cls-3{fill:#ffba00;}</style><linearGradient id="linear-gradient" x1="88.67" y1="68.42" x2="127.95" y2="112.59" gradientTransform="translate(75 -31.07) rotate(45)" gradientUnits="userSpaceOnUse"><stop offset="0" stop-color="#ffba00"/><stop offset="1" stop-color="#ff74fa"/></linearGradient><linearGradient id="linear-gradient-2" x1="52.16" y1="58.79" x2="33.14" y2="118.97" xlink:href="#linear-gradient"/></defs><path class="cls-1" d="M84.78,78C98.21,81.87,126,89.31,132.91,91.17s8.13,5.5,4.29,9.34L99.07,138.64c-2.09,2.09-3.22,3.1-7.25,2-5.17-1.43-44.51-12-50.88-14s-6-6.49-2.75-9.78L75.55,79.53C78.3,76.78,79.84,76.56,84.78,78Z"/><path class="cls-2" d="M72.12,65.33C68.24,51.9,60.8,24.12,58.94,17.2s-5.5-8.13-9.34-4.29L11.47,51c-2.09,2.09-3.1,3.22-2,7.25,1.43,5.17,12,44.51,14,50.88s6.49,6,9.78,2.75L70.58,74.56C73.33,71.81,73.55,70.27,72.12,65.33Z"/><path class="cls-3" d="M83.56,73c6.15,1.68,47,12.5,50.59,13.54s7.87-.92,6.59-6.59-13.08-49.89-13.89-53-2.89-3.35-5.21-4.05S73.61,10,69.91,9.09s-7.41,2.08-6.72,5.09,13.43,50,14.24,52.67S78.43,71.58,83.56,73Z"/></svg>