<svg id="Layer_1" data-name="Layer 1" xmlns="http://www.w3.org/2000/svg" xmlns:xlink="http://www.w3.org/1999/xlink" viewBox="0 0 150 150"><defs><style>.cls-1{fill:url(#linear-gradient);}.cls-2{fill:url(#linear-gradient-2);}.cls-3{fill:#ffba00;}</style><linearGradient id="linear-gradient" x1="88.67" y1="68.42" x2="127.95" y2="112.59" gradientTransform="translate(-31.07 75) rotate(-45)" gradientUnits="userSpaceOnUse"><stop offset="0" stop-color="#ffba00"/><stop offset="1" stop-color="#ff74fa"/></linearGradient><linearGradient id="linear-gradient-2" x1="52.16" y1="58.79" x2="33.14" y2="118.97" xlink:href="#linear-gradient"/></defs><path class="cls-1" d="M78,65.22C81.87,51.79,89.31,24,91.17,17.09s5.5-8.13,9.34-4.29l38.13,38.13c2.09,2.09,3.1,3.22,2,7.25-1.43,5.17-12,44.51-14,50.88s-6.49,6-9.78,2.75L79.53,74.45C76.78,71.7,76.56,70.16,78,65.22Z"/><path class="cls-2" d="M65.33,77.88C51.9,81.76,24.12,89.2,17.2,91.06s-8.13,5.5-4.29,9.34L51,138.53c2.09,2.09,3.22,3.1,7.25,2,5.17-1.43,44.51-12,50.88-13.95s6-6.49,2.75-9.78L74.56,79.42C71.81,76.67,70.27,76.45,65.33,77.88Z"/><path class="cls-3" d="M73,66.44c1.68-6.15,12.5-47,13.54-50.59S85.6,8,79.93,9.26,30,22.34,26.91,23.15,23.56,26,22.86,28.36,10,76.39,9.09,80.09s2.08,7.41,5.09,6.72,50-13.43,52.67-14.24S71.58,71.57,73,66.44Z"/></svg>